<svg xmlns="http://www.w3.org/2000/svg" width="472.971" height="487.376" viewBox="0 0 472.971 487.376">
  <g id="pattern" transform="translate(-789.288 95.519)" opacity="0.24">
    <path id="Shape" d="M469.951,182.4c-.511,43.651-9.112,84.905-32.673,118.923-10.072,14.553-22.1,26.539-33.183,39.874-8.924,10.747-17.358,20.738-27.619,29.6-24.341,20.977-44.124,48.121-69.991,66.8-34.531,24.972-74.086,38.775-113.334,44.294-19.165,2.7-38.962,3.64-58.353.593-16.651-2.616-32.6-11.8-47.4-21.192-29-18.406-57.151-44.564-75.979-77.658-41.51-72.96,40.331-126.009,82.336-157.074,19.318-14.29,48.835-30.841,56.749-59.147,5.657-20.221,9.1-40.786,16.387-60.383C186.463,54.4,226.186-7.5,279.125.743c22.648,3.521,43.292,17.824,64.439,27.426,21.774,9.889,44.244,15.4,66.874,21.45,21.151,5.65,38.008,13.691,51.669,35.248,6.529,10.293,5.953,22.618,6.535,35.248C469.594,140.862,470.181,161.726,469.951,182.4Z" transform="translate(1260.787 390.335) rotate(180)" fill="none" stroke="#e8e8e8" stroke-miterlimit="10" stroke-width="3"/>
    <path id="Shape-2" data-name="Shape" d="M423.859,134.257c-8.5,65.888-40.089,137.818-86.533,176.082-54.627,45.011-113.81,82.917-179.08,93.81-30.261,5.053-63.41,7.538-91.964-8.984C44.551,382.6,19.309,363.815,7.349,337.4c-29.26-64.61,35.821-116.045,72.9-145.936,19.963-16.092,45.374-31.772,60.42-55.272,8.729-13.623,13.186-31.648,20.233-46.612C182.262,44.235,217.419,7.66,261.213,1.118c20.249-3.021,40.643.717,60.742,3.688,20.571,3.04,41.4,4.692,61.841,8.931,16.319,3.389,35.551,9.127,41.561,30.44C432.936,71.036,427.33,107.35,423.859,134.257Z" transform="translate(1235.812 336.599) rotate(180)" fill="none" stroke="#e8e8e8" stroke-miterlimit="10" stroke-width="3"/>
    <path id="Shape-3" data-name="Shape" d="M379.688,110.784c-12.4,61.946-38.667,122.37-82.82,159.35-23.414,19.609-50.594,33.145-76.69,46.519-29.58,15.157-60.487,26.923-92.048,32.759-39.3,7.27-102.954,13.823-123.488-40.827-20.38-54.245,31.12-102.255,61.575-129.615,19.527-17.527,40.422-33.613,59.078-52.773,10.116-10.388,17.908-22.391,26.469-34.573,23.66-33.755,57.389-60.48,91.769-74.746C276.851,3.048,318.072-3.075,353.245,1.5c15.176,1.968,26.024,8.592,30.614,27.434C390.218,55.123,384.815,85.2,379.688,110.784Z" transform="translate(1212.346 302.542) rotate(180)" fill="none" stroke="#e8e8e8" stroke-miterlimit="10" stroke-width="3"/>
    <path id="Shape-4" data-name="Shape" d="M331.871,99.464c-12.321,54.541-38.894,104.354-77.663,137.09-43.454,36.7-99.408,57.087-150.839,67.455-27.336,5.508-86.576,20.44-100.509-22.3s26.35-84.853,49.533-108.038c28.138-28.1,58.475-55.224,88.778-80.432C167.492,71.325,195.586,48.916,224.1,31.99A271.487,271.487,0,0,1,274.165,8.564c12.755-4.4,28.974-10.953,42.347-7.68C350.239,9.147,337.764,73.387,331.871,99.464Z" transform="translate(1185.105 274.538) rotate(180)" fill="none" stroke="#e8e8e8" stroke-miterlimit="10" stroke-width="3"/>
    <path id="Shape-5" data-name="Shape" d="M280.74,86.281C253.706,189.423,168.052,240.147,85.581,257.832c-19.164,4.1-72.884,18.9-83.6-12.605C-8.4,214.678,24.616,178.449,40.072,161.284,87.964,108.1,147.132,68.661,203.2,29.593c17.5-12.2,49.065-38.658,70.777-26.451C297.547,16.424,286.341,64.893,280.74,86.281Z" transform="translate(1159.371 245.021) rotate(180)" fill="none" stroke="#e8e8e8" stroke-miterlimit="10" stroke-width="3"/>
    <path id="Shape-6" data-name="Shape" d="M223.531,68.286C200.02,144.243,131.638,187.807,68.766,202.172c-15.4,3.514-54.509,14.456-66.172-6.741-10.793-19.608,14.964-48.019,24.6-59.309,21.454-25.14,46.878-45.85,72-65.758,23.224-18.418,46.7-37.3,71.136-52.872,12.871-8.2,37.01-25.695,51.637-13.034C237.712,18.074,228.751,51.42,223.531,68.286Z" transform="translate(1129.853 207.175) rotate(180)" fill="none" stroke="#e8e8e8" stroke-miterlimit="10" stroke-width="3"/>
    <path id="Shape-7" data-name="Shape" d="M156.687,47.341c-17.92,49.6-65.913,81.813-108.249,92.518-11.391,2.876-36.013,10.329-45.623-2.918-8.847-12.2,5.411-30.085,11.739-38.345C42.6,61.986,83.674,29.282,121.3,9.2c9.461-5.05,26.469-14.961,36.2-4.768C167.49,14.894,160.8,35.95,156.687,47.341Z" transform="translate(1093.525 164.039) rotate(180)" fill="none" stroke="#e8e8e8" stroke-miterlimit="10" stroke-width="3"/>
    <path id="Shape-8" data-name="Shape" d="M83.445,23.524C73.348,48.155,46.956,66.738,25.1,72.657,9.711,76.82-8.782,73.223,4.625,51.783,17.946,30.5,42.661,11.07,63.608,2.455,79.589-4.115,92.116,2.367,83.445,23.524Z" transform="translate(1052.655 119.385) rotate(180)" fill="none" stroke="#e8e8e8" stroke-miterlimit="10" stroke-width="3"/>
  </g>
</svg>
